<svg id="Instagram" xmlns="http://www.w3.org/2000/svg" viewBox="0 0 128 128">
  <defs>
    <style>.bg{fill:#E1306C;}.fg{fill:#fff;}</style>
  </defs>
  <rect class="bg" x="3" y="3" width="122" height="122" rx="16" ry="16"/>
  <path class="fg" d="M86.5 39.5h-45A6 6 0 0 0 35.5 45.5v37a6 6 0 0 0 6 6h45a6 6 0 0 0 6-6v-37a6 6 0 0 0-6-6zm-22.5 45.8a11.8 11.8 0 1 1 11.8-11.8 11.8 11.8 0 0 1-11.8 11.8zm15.8-27.3a3.2 3.2 0 1 1 3.2-3.2 3.2 3.2 0 0 1-3.2 3.2zM64 57.3a8.7 8.7 0 1 0 8.7 8.7A8.7 8.7 0 0 0 64 57.3z"/>
</svg>