<?xml version="1.0" encoding="iso-8859-1"?>
<!-- Generator: Adobe Illustrator 19.0.0, SVG Export Plug-In . SVG Version: 6.00 Build 0)  -->
<svg version="1.1" id="Layer_1" xmlns="http://www.w3.org/2000/svg" xmlns:xlink="http://www.w3.org/1999/xlink" x="0px" y="0px"
	 viewBox="0 0 511.997 511.997" style="enable-background:new 0 0 511.997 511.997;" xml:space="preserve">
<path style="fill:#806749;" d="M379.32,310.193c-0.001-0.001-27.766-16.319-41.307-59.499
	c-11.118-35.453-42.573-62.466-81.628-62.466c-39.054,0-72.797,27.354-81.627,62.463c-10.86,43.183-35.513,55.862-35.514,55.863
	c-25.381,14.594-42.486,41.96-42.486,73.34c0,46.703,37.86,84.563,84.563,84.563c22.839,0,32.247-5.798,40.749-10.466
	c37.206-20.427,70.04,0.761,70.04,0.761c11.749,6.192,25.13,9.704,39.337,9.704c46.703,0,84.563-37.86,84.563-84.563
	C416.011,350.964,401.477,325.44,379.32,310.193z"/>
<g>
	<path style="fill:#6A563D;" d="M384.617,387.741c-4.335,0-7.849-3.513-7.849-7.849c0-14.673-7.163-28.494-19.17-37.005
		c-6.334-4.086-22.294-15.808-37.101-38.191c-2.391-3.615-1.399-8.484,2.215-10.876c3.616-2.392,8.485-1.4,10.877,2.215
		c13.648,20.632,28.431,31.038,32.636,33.736l0.279,0.187c16.256,11.441,25.961,30.108,25.961,49.933
		C392.466,384.227,388.952,387.741,384.617,387.741z"/>
	<path style="fill:#6A563D;" d="M331.448,440.911c-4.335,0-7.849-3.513-7.849-7.849s3.514-7.849,7.849-7.849
		c13.148,0,25.644-5.728,34.282-15.715c2.835-3.279,7.793-3.638,11.071-0.803c3.279,2.836,3.638,7.792,0.802,11.071
		C365.981,433.204,349.157,440.911,331.448,440.911z"/>
	<path style="fill:#6A563D;" d="M142.805,379.893c0-31.378,17.105-58.746,42.486-73.34c0.001-0.001,24.653-12.68,35.513-55.863
		c7.028-27.943,29.842-50.957,58.549-59.194c-7.265-2.115-14.952-3.269-22.968-3.269c-39.054,0-72.797,27.354-81.627,62.463
		c-10.86,43.183-35.513,55.862-35.513,55.863c-25.381,14.594-42.486,41.96-42.486,73.34c0,46.703,37.86,84.563,84.563,84.563
		c10.36,0,17.951-1.195,23.953-2.934C169.291,451.805,142.805,418.95,142.805,379.893z"/>
</g>
<g>
	<circle style="fill:#806749;" cx="171.349" cy="104.657" r="57.116"/>
	<circle style="fill:#806749;" cx="57.116" cy="224.551" r="57.116"/>
	<circle style="fill:#806749;" cx="340.648" cy="104.657" r="57.116"/>
	<circle style="fill:#806749;" cx="454.88" cy="224.551" r="57.116"/>
</g>
<g>
	<path style="fill:#6A563D;" d="M43.949,227.745c0-25.193,16.318-46.561,38.956-54.151c-7.748-3.928-16.505-6.157-25.787-6.157
		C25.572,167.438,0,193.01,0,224.555s25.573,57.117,57.117,57.117c6.352,0,12.454-1.053,18.162-2.966
		C56.694,269.283,43.949,250.009,43.949,227.745z"/>
	<path style="fill:#6A563D;" d="M158.183,107.851c0-25.193,16.318-46.561,38.956-54.151c-7.748-3.928-16.505-6.157-25.787-6.157
		c-31.545,0-57.117,25.573-57.117,57.116c0,31.545,25.573,57.117,57.117,57.117c6.352,0,12.454-1.053,18.162-2.966
		C170.929,149.388,158.183,130.114,158.183,107.851z"/>
	<path style="fill:#6A563D;" d="M327.48,107.851c0-25.193,16.318-46.561,38.956-54.151c-7.748-3.928-16.505-6.157-25.787-6.157
		c-31.545,0-57.117,25.573-57.117,57.116c0,31.545,25.573,57.117,57.117,57.117c6.352,0,12.454-1.053,18.162-2.966
		C340.226,149.388,327.48,130.114,327.48,107.851z"/>
	<path style="fill:#6A563D;" d="M441.715,227.745c0-25.193,16.318-46.561,38.956-54.151c-7.748-3.928-16.505-6.157-25.787-6.157
		c-31.545,0-57.117,25.573-57.117,57.117s25.573,57.117,57.117,57.117c6.352,0,12.454-1.053,18.162-2.966
		C454.46,269.283,441.715,250.009,441.715,227.745z"/>
</g>
<g>
</g>
<g>
</g>
<g>
</g>
<g>
</g>
<g>
</g>
<g>
</g>
<g>
</g>
<g>
</g>
<g>
</g>
<g>
</g>
<g>
</g>
<g>
</g>
<g>
</g>
<g>
</g>
<g>
</g>
</svg>
